<svg width="20" height="20" viewBox="0 0 20 20" fill="none" xmlns="http://www.w3.org/2000/svg">
<path d="M17.0023 13.6132C16.422 14.1936 15.4809 14.1936 14.9006 13.6132L12.3383 11.0508C11.7578 10.4705 11.7578 9.5295 12.3383 8.94911L14.9006 6.38678C15.4809 5.80639 16.422 5.80639 17.0023 6.38678L19.5647 8.9491C20.1451 9.5295 20.1451 10.4705 19.5647 11.0508L17.0023 13.6132ZM5.0994 13.6132C4.51901 14.1936 3.578 14.1936 2.99762 13.6132L0.435293 11.0508C-0.145097 10.4705 -0.145098 9.5295 0.435292 8.94911L2.99762 6.38678C3.578 5.80639 4.51901 5.80639 5.0994 6.38678L7.66172 8.9491C8.24211 9.5295 8.24211 10.4705 7.66172 11.0508L5.0994 13.6132ZM11.0509 19.5647C10.4705 20.1451 9.52949 20.1451 8.9491 19.5647L6.38677 17.0024C5.80638 16.422 5.80638 15.4809 6.38677 14.9006L8.9491 12.3383C9.52949 11.7578 10.4705 11.7578 11.0509 12.3383L13.6132 14.9006C14.1936 15.4809 14.1936 16.422 13.6132 17.0024L11.0509 19.5647ZM11.0509 7.66173C10.4705 8.24211 9.52949 8.24212 8.9491 7.66173L6.38677 5.0994C5.80638 4.51901 5.80638 3.57801 6.38677 2.99762L8.9491 0.435294C9.52949 -0.145097 10.4705 -0.145098 11.0509 0.435293L13.6132 2.99762C14.1936 3.57801 14.1936 4.51901 13.6132 5.0994L11.0509 7.66173Z" fill="black"/>
</svg>
